<mxfile host="app.diagrams.net" modified="2024-04-01T15:41:47.882Z" agent="Mozilla/5.0 (Windows NT 10.0; Win64; x64) AppleWebKit/537.36 (KHTML, like Gecko) Chrome/122.0.0.0 Safari/537.36 Edg/122.0.0.0" etag="fwlqU66XOD6PY_iLSqZy" version="24.2.1" type="device">
  <diagram name="Page-1" id="jlAtIL1Gur0_WZoqOrKd">
    <mxGraphModel dx="1426" dy="785" grid="1" gridSize="10" guides="1" tooltips="1" connect="1" arrows="1" fold="1" page="1" pageScale="1" pageWidth="850" pageHeight="1100" math="0" shadow="0">
      <root>
        <mxCell id="0" />
        <mxCell id="1" parent="0" />
        <mxCell id="ygym1BxkTWRnWgI2AN29-1" value="Profile:&lt;div&gt;&lt;u&gt;Profile&lt;/u&gt;&lt;/div&gt;" style="whiteSpace=wrap;html=1;align=center;" vertex="1" parent="1">
          <mxGeometry x="70" y="270" width="100" height="40" as="geometry" />
        </mxCell>
        <mxCell id="ygym1BxkTWRnWgI2AN29-2" value="Order:&lt;div&gt;&lt;u style=&quot;&quot;&gt;&lt;i&gt;O&lt;/i&gt;rder&lt;/u&gt;&lt;/div&gt;" style="whiteSpace=wrap;html=1;align=center;" vertex="1" parent="1">
          <mxGeometry x="650" y="270" width="100" height="40" as="geometry" />
        </mxCell>
        <mxCell id="ygym1BxkTWRnWgI2AN29-3" value="Customer:&lt;div&gt;&lt;u&gt;Customer&lt;/u&gt;&lt;/div&gt;" style="whiteSpace=wrap;html=1;align=center;" vertex="1" parent="1">
          <mxGeometry x="80" y="120" width="100" height="40" as="geometry" />
        </mxCell>
        <mxCell id="ygym1BxkTWRnWgI2AN29-4" value="Product:&lt;div&gt;&lt;u&gt;Product&lt;/u&gt;&lt;/div&gt;" style="whiteSpace=wrap;html=1;align=center;" vertex="1" parent="1">
          <mxGeometry x="320" y="120" width="100" height="40" as="geometry" />
        </mxCell>
        <mxCell id="ygym1BxkTWRnWgI2AN29-5" value="" style="whiteSpace=wrap;html=1;align=center;" vertex="1" parent="1">
          <mxGeometry x="400" y="70" width="100" height="40" as="geometry" />
        </mxCell>
        <mxCell id="ygym1BxkTWRnWgI2AN29-6" value="" style="whiteSpace=wrap;html=1;align=center;" vertex="1" parent="1">
          <mxGeometry x="375" y="90" width="100" height="40" as="geometry" />
        </mxCell>
        <mxCell id="ygym1BxkTWRnWgI2AN29-8" value="" style="endArrow=none;html=1;rounded=0;entryX=1;entryY=0.5;entryDx=0;entryDy=0;" edge="1" parent="1" target="ygym1BxkTWRnWgI2AN29-4">
          <mxGeometry width="50" height="50" relative="1" as="geometry">
            <mxPoint x="375" y="120" as="sourcePoint" />
            <mxPoint x="425" y="70" as="targetPoint" />
            <Array as="points">
              <mxPoint x="420" y="120" />
            </Array>
          </mxGeometry>
        </mxCell>
        <mxCell id="ygym1BxkTWRnWgI2AN29-9" value="" style="endArrow=none;html=1;rounded=0;entryX=0;entryY=0.5;entryDx=0;entryDy=0;" edge="1" parent="1" target="ygym1BxkTWRnWgI2AN29-4">
          <mxGeometry width="50" height="50" relative="1" as="geometry">
            <mxPoint x="180" y="140" as="sourcePoint" />
            <mxPoint x="230" y="90" as="targetPoint" />
          </mxGeometry>
        </mxCell>
        <mxCell id="ygym1BxkTWRnWgI2AN29-10" value="adds to cart" style="text;html=1;align=center;verticalAlign=middle;whiteSpace=wrap;rounded=0;" vertex="1" parent="1">
          <mxGeometry x="190" y="110" width="110" height="30" as="geometry" />
        </mxCell>
        <mxCell id="ygym1BxkTWRnWgI2AN29-11" value="Cart:&lt;div&gt;&lt;u&gt;Cart&lt;/u&gt;&lt;/div&gt;" style="html=1;whiteSpace=wrap;" vertex="1" parent="1">
          <mxGeometry x="650" y="115" width="110" height="50" as="geometry" />
        </mxCell>
        <mxCell id="ygym1BxkTWRnWgI2AN29-12" value="" style="endArrow=none;html=1;rounded=0;entryX=0;entryY=0.5;entryDx=0;entryDy=0;" edge="1" parent="1" target="ygym1BxkTWRnWgI2AN29-11">
          <mxGeometry width="50" height="50" relative="1" as="geometry">
            <mxPoint x="420" y="140" as="sourcePoint" />
            <mxPoint x="470" y="90" as="targetPoint" />
          </mxGeometry>
        </mxCell>
        <mxCell id="ygym1BxkTWRnWgI2AN29-13" value="contains" style="text;html=1;align=center;verticalAlign=middle;whiteSpace=wrap;rounded=0;" vertex="1" parent="1">
          <mxGeometry x="580" y="110" width="60" height="30" as="geometry" />
        </mxCell>
        <mxCell id="ygym1BxkTWRnWgI2AN29-15" value="creates" style="text;html=1;align=center;verticalAlign=middle;whiteSpace=wrap;rounded=0;" vertex="1" parent="1">
          <mxGeometry x="130" y="165" width="60" height="30" as="geometry" />
        </mxCell>
        <mxCell id="ygym1BxkTWRnWgI2AN29-16" value="" style="endArrow=none;html=1;rounded=0;" edge="1" parent="1">
          <mxGeometry width="50" height="50" relative="1" as="geometry">
            <mxPoint x="700" y="170" as="sourcePoint" />
            <mxPoint x="130" y="160" as="targetPoint" />
            <Array as="points">
              <mxPoint x="700" y="220" />
              <mxPoint x="130" y="220" />
            </Array>
          </mxGeometry>
        </mxCell>
        <mxCell id="ygym1BxkTWRnWgI2AN29-17" value="" style="endArrow=none;html=1;rounded=0;" edge="1" parent="1">
          <mxGeometry width="50" height="50" relative="1" as="geometry">
            <mxPoint x="120" y="160" as="sourcePoint" />
            <mxPoint x="120" y="280" as="targetPoint" />
          </mxGeometry>
        </mxCell>
        <mxCell id="ygym1BxkTWRnWgI2AN29-18" value="has a" style="text;html=1;align=center;verticalAlign=middle;whiteSpace=wrap;rounded=0;" vertex="1" parent="1">
          <mxGeometry x="70" y="165" width="60" height="30" as="geometry" />
        </mxCell>
        <mxCell id="ygym1BxkTWRnWgI2AN29-19" value="" style="endArrow=none;html=1;rounded=0;exitX=0.58;exitY=0;exitDx=0;exitDy=0;exitPerimeter=0;" edge="1" parent="1" source="ygym1BxkTWRnWgI2AN29-2">
          <mxGeometry width="50" height="50" relative="1" as="geometry">
            <mxPoint x="660" y="215" as="sourcePoint" />
            <mxPoint x="710" y="165" as="targetPoint" />
          </mxGeometry>
        </mxCell>
        <mxCell id="ygym1BxkTWRnWgI2AN29-20" value="becomes" style="text;html=1;align=center;verticalAlign=middle;whiteSpace=wrap;rounded=0;" vertex="1" parent="1">
          <mxGeometry x="720" y="170" width="60" height="30" as="geometry" />
        </mxCell>
      </root>
    </mxGraphModel>
  </diagram>
</mxfile>
